<svg xmlns="http://www.w3.org/2000/svg" xmlns:xlink="http://www.w3.org/1999/xlink" width="432" height="276" viewBox="0 0 432 276">
    <defs>
        <path id="prefix__a" d="M0.036 0.432L502.934 0.432 502.934 355.998 0.036 355.998z"/>
        <path id="prefix__b" d="M.96 1.773c13.25 7.6 26.498 15.2 39.748 22.803-.392-.226-.644-.767-.646-1.54L.317.233c.001.77.254 1.314.643 1.54"/>
        <path id="prefix__d" d="M41.53 23.384L1.98.4C1.039.942.279 2.486.282 3.844L39.833 26.83c-.004-1.36.76-2.902 1.698-3.447"/>
        <path id="prefix__f" d="M13.506 7.302C9.776 5.11 6.046 2.919 2.319.727 1.781.414.985.48.097 1L11.284 7.57c.887-.517 1.684-.585 2.222-.268"/>
        <path id="prefix__h" d="M14.734 6.998L3.247.59C1.594 1.505.258 3.52.263 5.09l11.486 6.408c-.005-1.57 1.333-3.584 2.985-4.5"/>
        <path id="prefix__j" d="M36.412 17.855L5.484.008C2.58 1.658.232 5.663.24 8.945L31.168 26.79c-.01-3.282 2.338-7.29 5.244-8.935"/>
        <path id="prefix__l" d="M4.858.662l3.037 1.721c-1.102-.625-2.63-.537-4.313.411L.546 1.074C2.23.124 3.756.036 4.858.661"/>
        <path id="prefix__n" d="M3.262 12.489L.177 10.713C.167 6.843 2.915 2.128 6.315.183L9.399 1.96C6 3.903 3.251 8.619 3.262 12.489"/>
        <path id="prefix__p" d="M.563.373l.054 10.063c0 .385.242.77.721 1.063.963.589 2.533.59 3.503 0 .489-.297.732-.686.731-1.075L5.518.361c.001.388-.241.778-.73 1.074-.971.59-2.54.589-3.503 0C.805 1.14.565.757.563.373"/>
        <path id="prefix__r" d="M4.516.653l2.95 1.672c-1.07-.607-2.554-.522-4.19.4L.323 1.053C1.962.131 3.446.046 4.516.653"/>
        <path id="prefix__t" d="M4.922 4.97l-1.498-.773-1.498-.774C.851 2.868.184 1.687.18.01l2.996 1.547c.006 1.678.671 2.857 1.747 3.413"/>
        <path id="prefix__v" d="M3.57 11.658L.575 9.986C.564 6.342 3.234 1.9 6.537.07l2.997 1.672C6.23 3.573 3.559 8.014 3.57 11.658"/>
        <path id="prefix__x" d="M4.998.056l-.046 9.461c-.001.362-.218.724-.65 1-.865.553-2.278.555-3.15 0-.44-.28-.659-.645-.658-1.011L.541.045c0 .366.219.732.658 1.01.874.555 2.286.554 3.15 0C4.781.78 5 .418 5 .056"/>
        <path id="prefix__z" d="M1.111 1.804C1.083 1.14.897.567.568.106l2.245 3.161c.327.46.514 1.035.542 1.697l-1.122-1.58c-.086-.125-.205-.29-.292-.414l-.568-.798c-.077-.11-.216-.238-.262-.368"/>
        <path id="prefix__B" d="M3.511 1.534l2.021 3.161c-.601-.94-1.726-1.407-3.231-1.174L.282.361c1.504-.233 2.63.233 3.23 1.173"/>
        <path id="prefix__D" d="M2.69 11.992L.71 9.338C.13 8.558.049 7.39.605 6.016 1.723 3.25 5 .692 7.924.303l1.979 2.655c-2.922.388-6.2 2.947-7.32 5.713-.556 1.374-.473 2.542.107 3.321"/>
        <path id="prefix__F" d="M.223.572c.244.138.394.443.399.875l1.871 1.084c0-.425-.149-.73-.396-.87L.223.57"/>
    </defs>
    <g fill="none" fill-rule="evenodd" transform="translate(-36 -40)">
        <path fill="#924623" d="M284.65 180.745l-99.596 57.71c-11.037 6.426-28.884 6.426-39.86-.007L44.195 179.56C38.74 176.367 36.01 172.186 36 168l.034 22.726c.011 4.187 2.74 8.367 8.195 11.561l100.998 58.889c10.975 6.431 28.821 6.431 39.86.005l99.592-57.706c5.557-3.231 8.332-7.48 8.321-11.717l-.037-22.724c.015 4.24-2.76 8.483-8.313 11.711z"/>
        <path fill="#ACCCC7" d="M44.316 157.308c-11.039 6.404-11.097 16.793-.12 23.198l101.012 58.684c10.978 6.412 28.827 6.412 39.867.008l99.61-57.51c11.037-6.4 11.097-16.787.118-23.194L183.79 99.805c-10.977-6.406-28.826-6.406-39.865-.002l-99.608 57.505"/>
        <path fill="#398E8F" d="M467.97 215c.01 3.51-2.433 7.022-7.323 9.697l-125.648 68.504c-9.721 5.317-25.437 5.317-35.102-.004l-105.681-58.776c-4.8-2.646-7.206-6.106-7.216-9.57l.03 18.81c.008 3.465 2.414 6.925 7.216 9.57l105.68 58.776c9.664 5.323 25.38 5.323 35.101.004l125.65-68.502c4.887-2.676 7.333-6.19 7.323-9.7L467.97 215"/>
        <path fill="#54B5B6" d="M194.298 215.712c-9.688 5.337-9.737 13.989-.107 19.328l105.316 58.957c9.633 5.337 25.294 5.337 34.982.003l125.214-68.713c9.686-5.334 9.737-13.987.105-19.327l-105.316-58.954c-9.63-5.34-25.29-5.34-34.98-.004l-125.214 68.71"/>
        <path fill="#4F848E" d="M247.878 230L245 228.336 333.122 178 336 179.664 247.878 230"/>
        <path fill="#924623" d="M292.964 165.018c.013 4.177-2.76 8.36-8.314 11.546l-99.595 56.868c-11.04 6.331-28.886 6.331-39.862-.008l-100.998-58.03c-5.454-3.15-8.185-7.27-8.195-11.394l.032 8.818c.012 4.127 2.74 8.246 8.195 11.395l100.999 58.032c10.976 6.339 28.82 6.339 39.863.008l99.59-56.869c5.557-3.186 8.332-7.37 8.321-11.546l-.036-8.82"/>
        <path fill="#C9754E" d="M44.316 151.307c-11.038 6.406-11.097 16.792-.12 23.2l101.012 58.684c10.977 6.41 28.826 6.41 39.867.008l99.609-57.508c11.038-6.403 11.097-16.79.12-23.198L183.79 93.806c-10.98-6.408-28.827-6.408-39.867-.002l-99.607 57.503"/>
        <path fill="#93593E" d="M181.878 217L179 215.336 267.122 165 270 166.665 181.878 217M171.45 173c-.414 0-.854-.004-1.317-.012-7.765-.135-30.133-1.074-30.133-1.074l4.533-11.016 55.2-30.898s10.933 8.598-7.2 19.344c-7.05 4.18 12.38 14.876 9.6 16.658-.848.543-1.872.762-3.025.762-2.382 0-5.312-.935-8.35-1.87-3.037-.935-6.183-1.87-9-1.87-2.439 0-4.631.701-6.292 2.71-2.587 3.128 9.382 7.266-4.016 7.266"/>
        <path fill="#E9E2D8" d="M170.437 160l4.376 4.473s1.941 1.523 2.712 2.39c.171.193.437.922.47 1.502.023.372-.018 1.577-.26 1.846-.62.685-2.957 1.968-5.82 1.768-3.171-.22-5.096-2.292-5.096-2.292-.514-.343-4.37-3.766-4.37-3.766s-1.196-1.015-1.26-2.294l-.189-2.98 9.437-.647"/>
        <path fill="#B94849" d="M170.576 159.336l.559 1.506 4.12 3.854s.959.834 1.958 2.046c.336.411.752.877.784 1.463.02.375-.07.745-.313 1.017-.621.693-2.317 1.422-3.38 1.62-3.959.738-6.32-1.344-6.32-1.344-.415-.276-4.862-3.822-5.859-4.911-.606-.663-.873-2.277-.873-2.277s-.188-.9-.243-1.578c-.17-2.112 2.13-3.732 2.13-3.732l7.437 2.336"/>
        <path fill="#FFFFFE" d="M169.026 165.91c.063.12.212.105.326.043.434-.243 1.619-1.162 2.613-1.376 1.478-.319 2.246-.158 2.719-.047.122.03.265.004.305-.124.033-.102-.011-.219-.107-.244-.43-.117-1.48-.318-3.167.046-1.126.242-2.233 1.207-2.626 1.434-.09.05-.113.175-.063.268M168.027 164.911c.064.117.216.105.33.041.441-.241 1.8-1.156 2.808-1.369 1.5-.317 2.035-.18 2.514-.069.124.027.271.003.31-.124.033-.103-.01-.217-.109-.244-.437-.117-1.412-.29-3.125.07-1.143.241-2.265 1.2-2.665 1.428-.091.05-.115.173-.063.267M167.028 163.912c.065.117.22.103.336.039.45-.24 1.923-1.165 2.949-1.378 1.53-.32 1.871-.19 2.36-.077.127.027.276.003.316-.125.033-.102-.011-.217-.11-.244-.446-.118-1.15-.267-2.885.14-.996.235-2.495 1.15-2.903 1.376-.092.05-.116.173-.063.27"/>
        <path fill="#9D7E5D" d="M199.38 110.328l-.037 28.225c.004.712.254 1.212.657 1.447l-27.255-15.915c-.404-.237-.657-.735-.659-1.448L172 100l27.38 10.328"/>
        <g transform="translate(107 134)">
            <mask id="prefix__c" fill="#fff">
                <use xlink:href="#prefix__b"/>
            </mask>
            <path fill="#E3E3DE" d="M40.062 23.036L.317.233c.001.77.254 1.314.643 1.54l39.748 22.803c-.392-.226-.644-.767-.646-1.54" mask="url(#prefix__c)"/>
        </g>
        <path fill="#A9AAA6" d="M146.967 145.735L108 123 108.033 134.267 147 157 146.967 145.735"/>
        <path fill="#AD7D52" d="M157.355 92.19c.403-.234.773-.244 1.063-.075L198 115.101c-.292-.168-.662-.158-1.065.075L148.58 143 109 120.014l48.355-27.824"/>
        <g transform="translate(107 120)">
            <mask id="prefix__e" fill="#fff">
                <use xlink:href="#prefix__d"/>
            </mask>
            <path fill="#E3E3DE" d="M41.53 23.384L1.98.4c-.217.123-.423.303-.615.519l39.554 22.986c.19-.218.396-.393.613-.521M40.918 23.905L1.364.919C1.102 1.219.87 1.59.691 2l39.551 22.986c.181-.408.412-.782.676-1.081" mask="url(#prefix__e)"/>
            <path fill="#E3E3DE" d="M40.242 24.986L.691 2C.435 2.581.28 3.231.282 3.844L39.833 26.83c0-.615.155-1.267.409-1.845" mask="url(#prefix__e)"/>
        </g>
        <path fill="#BC9066" d="M148.705 142.687c-.942.538-1.71 2.063-1.705 3.407l.034 11.258c.003 1.35.774 1.995 1.717 1.46l48.547-27.5c.944-.537 1.706-2.057 1.702-3.403l-.034-11.26c-.003-1.342-.77-1.998-1.714-1.462l-48.547 27.5"/>
        <path fill="#CFA579" d="M195.33 95.095c-2.95 1.67-5.338 5.718-5.33 9.043l.044 13.012c.004.949.688 1.332 1.53.856l8.53-4.866.088 24.279c.004 1.43 1.051 1.985 2.323 1.269l.201-.115c1.433-.812 2.287-2.448 2.284-3.87l-.016-16.303-.078-22.684c-.012-3.327-2.414-4.668-5.37-2.997l-4.205 2.376"/>
        <g transform="translate(150 48)">
            <mask id="prefix__g" fill="#fff">
                <use xlink:href="#prefix__f"/>
            </mask>
            <path fill="#E6CFAE" d="M13.506 7.302L2.319.727C1.781.414.985.48.097 1L11.284 7.57c.887-.517 1.684-.585 2.222-.268" mask="url(#prefix__g)"/>
        </g>
        <path fill="#E7D7C2" d="M161 55.446L150.063 49 112 71.553 122.937 78 161 55.446M119.968 82.321L109 76 109.14 116.544 120 124 119.968 82.321"/>
        <g transform="translate(109 71)">
            <mask id="prefix__i" fill="#fff">
                <use xlink:href="#prefix__h"/>
            </mask>
            <path fill="#E7D7C2" d="M.674 3.418c.265-.578.647-1.146 1.103-1.646.435-.474.936-.886 1.47-1.182l11.487 6.408c-.534.297-1.037.708-1.47 1.182-.457.5-.84 1.068-1.105 1.645-.26.57-.41 1.145-.41 1.673L.263 5.09c-.002-.526.148-1.103.411-1.672" mask="url(#prefix__i)"/>
        </g>
        <path fill="#CAA983" d="M122.85 77.967c-1.577.92-2.855 2.944-2.85 4.52l.096 41.875c.004 1.576 1.288 2.107 2.866 1.186l38.188-22.516c1.575-.922 2.853-2.944 2.85-4.52l-.096-41.872c-.005-1.578-1.288-2.108-2.866-1.19l-38.187 22.517"/>
        <path fill="#D4BB9B" d="M189.513 103.652l.044 13.39c.002.472.171.801.443.958l-27.514-15.654c-.271-.154-.442-.485-.443-.955L162 88l27.513 15.652"/>
        <path fill="#E6CFAE" d="M162.926 84.249c1.924-4.279 4.6-5.246 8.616-7.526 1.49-.846 2.837-.924 3.811-.368L203 92.154c-1.956-1.118-3.934.437-8.02 2.756-2.949 1.676-5.343 5.742-5.335 9.09L162 88.202c-.004-1.27.338-2.645.926-3.953"/>
        <path fill="#E9E2D8" d="M193.136 155l5.484 5.288s2.385.329 3.174 1.309c.174.217 2.207.211 2.206.834-.001.397-.1 1.79-.316 2.118-.426.651-1.089 1.455-3.364 1.451-1.782 0-4.316-.875-6.902-1.687-2.466-.774-5.007-1.23-5.007-1.23-2.879-.623-4.34-1.284-4.34-1.284s-.793-.375-.822-1.016l-.249-3.514L193.136 155"/>
        <path fill="#B94849" d="M194.19 153.724c-.558.894.037 1.205.037 1.205l5.039 3.203s2.724 1.44 3.758 2.142c.467.32.977.918.976 1.543 0 .4-.371 1.148-.965 1.542-.828.55-1.447.654-3.578.64-1.956-.015-5.385-1.697-9.258-2.52-7.19-1.528-6.997-2.966-6.997-2.966s-.184-2.251-.199-2.974c-.057-2.248.668-3.539.668-3.539s6.268 1.31 9.696.307c.197-.058 1.185.837.823 1.417"/>
        <path fill="#F8F7F5" d="M194.08 159.899c.117.16.321.114.457-.021.498-.5 1.586-1.54 2.45-1.966.654-.325 1.19-.246 1.506-.138.169.059.367.04.456-.14.07-.142.08-.343-.049-.406-.348-.174-1.135-.436-2.128.055-1.005.493-2.233 1.697-2.696 2.167-.11.115-.092.318.003.449"/>
        <path fill="#F8F7F5" d="M193.08 158.898c.117.16.32.115.457-.02.498-.5 1.586-1.54 2.447-1.964.657-.324 1.19-.248 1.507-.14.169.06.367.042.458-.14.07-.143.08-.342-.049-.408-.348-.17-1.135-.436-2.13.057-1.003.495-2.233 1.697-2.693 2.17-.111.113-.095.315.002.445M191.08 157.897c.116.161.32.116.456-.019.497-.5 1.588-1.54 2.449-1.966.656-.323 1.191-.243 1.507-.135.169.055.366.038.457-.145.071-.14.079-.342-.05-.403-.348-.175-1.135-.438-2.127.053-1.006.497-2.235 1.698-2.696 2.167-.11.117-.093.318.003.448"/>
        <path fill="#4C647A" d="M149.569 108l28.139 11.92s4.557 1.427 6.33 9.055c.898 3.866 4.955 15.825 8.837 24.488 1.066 2.378-4.86 5.68-10.199 1.631-.483-.367-8.072-18.44-8.27-18.861-1.259-2.68-1.292-3.9-1.292-3.9-.34-1.562-1.147-1.407-3.493-2.682l-19.91-7.76s-.711-1.728-.711-7.512c0-1.89.569-6.379.569-6.379"/>
        <path fill="#4C647A" d="M145.157 113s10.872 9.81 19.133 17.427c1.695 1.562 2.261 5.003 2.683 8.518.563 4.683 3.132 19.143 3.955 20.796.835 1.676-5.778 4.11-10.237 0-.445-.41-3.698-15.364-3.742-15.827 0 0-.278-1.662-.142-2.555.282-1.846-1.273-3.088-2.543-3.727-4.142-2.082-13.06-8.447-16.308-10.577-3.596-2.358-4-6.311-3.953-8.092.11-4.254 11.154-5.963 11.154-5.963"/>
        <path fill="#132F30" d="M172.49 97.1c-.472.287-1.346.566-1.346.566s-1.805 1.757-1.79 1.238c.098-3.283.549-5.504-.148-5.934-.312-.192-.993-.165-1.817-.912-2.499-2.26-10.443-5.91-10.443-5.91s-7.438-8.86-4.071-10.787c2.676-1.53 6.274 2.122 9.834 5.005 1.15.93 9.155 5.957 10.307 6.763 3.28 2.296 2.977 5.856 2.977 5.856l-1.083-.383s-.145 3.121-2.42 4.498"/>
        <path fill="#15393C" d="M132.457 114.61s.876-21.623-.39-28.206c-.53-2.761 2.23-4.447 2.23-4.447 1.216-.934 9.87-5.504 9.87-5.504l.746-.778 5.077-.61s5.287-.621 6.484 1.995c1.757 3.848 2.884 6.215 2.422 13.67l-3.324 26.554c-.064 1.003-.229 2.184-1.354 2.957 0 0-7.62 3.24-11.531 2.698-4.007-.556-7.659-3.175-7.659-3.175-2.364-1.555-2.596-5.505-2.57-5.155M169.814 100.475s.144-5.204-.673-7.064c-.815-1.851 2.095-5.342 3.985-4.179 3.148 1.937 3.776 4.316 3.861 5.619.133 2.07-.823 5.018-1.2 6.149l-5.973-.525"/>
        <path fill="#E2C1A5" d="M151 81.015c-1.285 4.287-7.9.756-7.87-2.383C143.175 74.192 141 70 141 70l7.557.045L151 81.015"/>
        <path fill="#FDE5D1" d="M142.18 65.1c1.834-.472 2.608.875 2.608.875l1.192 2.927s.17.658-.475.95c-.975.437-1.721-.171-2.514-.849-.046-.038-1.119-1.061-1.183-1.123-.915-.865-1.364-2.334.373-2.78"/>
        <path fill="#EEC59F" d="M146.373 59.675v.003L140 61.433l2.984 11.67c.3.776.458 1.505.766 2.145.34.703.637 1.75 1.713 2.192 0 0 1.172.316 2.756.87.988.346 2.184.65 3.478.69.85.025 2.44-1.29 2.44-1.29 1.053-.808.868-.745.82-4.471 0 0-.4-6.725-.397-8.771.002-2.693-2.621-6.468-2.621-6.468l-5.566 1.675"/>
        <path fill="#91502A" d="M154.78 58.903c.06.178.668 2.453-.44 2.681-.16.034-1.143-.348-3.48.103-.12.024-4.53.73-5.185 4.151-.301 1.568-.456 4.871-.46 4.893-.045.247-2.606.113-2.533.27.624 1.376.885 5.997.885 5.997-.452.024-1.568-.137-2.47-.642-.516-.289.184-1.277-.467-2.449-.557-1-2.696-4.775-3.167-5.463-4.524-6.602 1.914-17.52 12.853-13.626 1.184.422 3.031 1.652 3.842 2.294.832.66.206.527.622 1.79"/>
        <path fill="#EEC59F" d="M142.18 68.147c1.677-.705 2.756 1.35 2.756 1.35l1.028 2.338s.236.891-.497 1.09c-.855.232-1.65-.089-2.442-.766-.048-.037-1.203-.984-1.266-1.046-.913-.86-1.25-2.265.42-2.966"/>
        <path fill="#91502A" d="M154.74 58.013s-4.705-.331-6.47 2.338c-1.764 2.669-2.832 3.02-2.849 5.105C145.381 70.37 145 72 145 72s1.473-.008 1.999-1.986c.617-2.318 1.27-3.42 1.766-3.576.53-.168.325 1.554-.092 2.282-.098.17 3.679-1.17 5.397-3.537 1.507-2.073 1.435-2.257 1.764-3.301.431-1.375.007-3.388-1.095-3.869M144 74s.315 1.771.677 2.681c.363.91.967 1.211 2.664 1.873 1.934.756 3.707 1.512 4.585 1.441 1.479-.118 3.802-1.822 4.045-2.76.113-.43-.14-2.048-.14-2.048s-.026 2.044-.538 2.112c-.333.042-.62-.349-.62-.349s-.205-.397-.516.458c-.243.67-.543.885-.69.972-1.138.687-2.568.484-4.07.076-1.753-.476-4.03-1.98-4.329-2.488C144.631 75.227 144 74 144 74"/>
        <path fill="#FDE5D1" d="M171.974 99.452c.038 1.158.176 1.24-.967 1.268-.398.013-1.638.693-.888 1.678.637.84.018 2.353-1.043 1.162-.152-.173-1.167-1.327-1.07-2.053.47-3.475 2-4.477 3.14-4.507 1.14-.03.792 1.295.828 2.452"/>
        <path fill="#FDE5D1" d="M174.21 97.442s-1.983-.683-2.652-.35c-1.532.763-1.558 2.437-1.558 2.437l.016.603.811 3.814s.3 2.859.853 3.853c.206.366.584.202.8-.25.186-.389-.188-2.496.173-2.594 1.985-.547 3.058-1.75 3.058-1.75l.289-3.442c.002-1.319-.377-1.419-1.79-2.321"/>
        <path fill="#D4BB9B" d="M134.331 176.521L103 158c.002.724.258 1.239.667 1.477L135 178c-.41-.239-.665-.75-.669-1.479M133.873 137.05L133.935 159.735 134 176 103.128 157.951 103.063 141.682 103 119 133.873 137.05"/>
        <path fill="#E6CFAE" d="M116.757 104.72c1.486-.843 2.833-.92 3.805-.365L152 122.468c-.972-.556-2.32-.478-3.808.364L140.437 127 109 108.887l7.757-4.168"/>
        <g transform="translate(103 110)">
            <mask id="prefix__k" fill="#fff">
                <use xlink:href="#prefix__j"/>
            </mask>
            <path fill="#E6CFAE" d="M1.152 5.058c.513-1.14 1.213-2.229 2.037-3.148C3.882 1.133 4.661.477 5.484.008l30.928 17.847c-.823.467-1.602 1.124-2.296 1.9-.823.92-1.524 2.011-2.038 3.15-.577 1.288-.914 2.638-.91 3.885L.24 8.945c-.003-1.246.334-2.599.912-3.887" mask="url(#prefix__k)"/>
        </g>
        <path fill="#CFA579" d="M135.062 159.29l.064 16.13c.005 1.41 1.006 1.984 2.238 1.278l9.485-5.235c1.235-.713 1.023-1.74 1.017-3.15l-.061-22.125 3.713-2.138c.82-.474 1.484-1.617 1.482-2.56l-.044-14.81c-.009-3.292-2.345-4.623-5.223-2.969l-7.546 4.12c-2.874 1.65-5.196 5.67-5.187 8.962l.062 22.497"/>
        <path fill="#FDE5D1" d="M143.039 118.763c.937.69 2.395-.255 2.964-1.195.197-.326 2.072.767 3.019.766.996 0 1.056-1.088.929-1.365-.101-.216-1.261-.471-3.23-1.253-2.55-1.01-3.896-.907-4.462.033-.567.94-.156 2.327.78 3.014"/>
        <path fill="#FDE5D1" d="M140.17 116.147c1.393-3.044 4.144-1.96 4.144-1.96s3.86 2.598 4.885 3.76c.681.772 1.72 2.926 1.792 3.738.114 1.283-.868 1.058-.868 1.058-1.96.725-3.257-.312-3.257-.312l-2.272-1.925c-4.192-2.209-5.014-3.07-4.424-4.36"/>
        <path fill="#195253" d="M140.73 116.398c-1.015 1.284-.96 2.623-1.014 2.602-4.331-1.637-13.468-6.293-16.047-8.356-2.584-2.067-1.397-4.863-1.397-4.863s5.526-14.919 8.892-20.603c2.655-4.48 7.216-1.492 6.374 3.917-.484 3.102-5.45 12.744-6.965 15.972-.869 1.863.439 2.391.439 2.391L143 114.73s-1.21.33-2.27 1.668"/>
        <g transform="translate(262 63)">
            <mask id="prefix__m" fill="#fff">
                <use xlink:href="#prefix__l"/>
            </mask>
            <path fill="#37605B" d="M3.582 2.794L.546 1.074C2.23.124 3.756.036 4.858.661l3.037 1.721c-1.102-.625-2.63-.537-4.313.411" mask="url(#prefix__m)"/>
        </g>
        <path fill="#37605B" d="M184 205l-3.159-1.56c-1.133-.56-1.836-1.75-1.841-3.44l3.159 1.56c.004 1.69.708 2.88 1.841 3.44"/>
        <path fill="#398E8F" d="M182 201L178.285 199.272 178 119 181.715 120.729 182 201M187.945 111L185 109.281 263.056 64 266 65.72 187.945 111"/>
        <path fill="#7BAFAB" d="M182.01 121l-3.01-1.731c-.01-3.774 2.672-8.373 5.99-10.269l3.01 1.73c-3.318 1.897-6 6.496-5.99 10.27"/>
        <g transform="translate(179 109)">
            <mask id="prefix__o" fill="#fff">
                <use xlink:href="#prefix__n"/>
            </mask>
            <path fill="#398E8F" d="M3.262 12.489L.177 10.713C.167 6.843 2.916 2.128 6.315.183L9.399 1.96C6 3.903 3.251 8.619 3.262 12.489" mask="url(#prefix__o)"/>
        </g>
        <path fill="#54B5B6" d="M265.88 65.808c3.244-1.879 5.886-.37 5.896 3.37l.224 79.663c.012 3.74-2.611 8.3-5.857 10.178l-78.022 45.173c-3.245 1.88-5.885.368-5.895-3.373L182 121.157c-.01-3.74 2.613-8.297 5.858-10.176l78.021-45.173"/>
        <path fill="#49676D" d="M242.012 79.785L248 76 247.989 79.215 242 83 242.012 79.785"/>
        <path fill="#51747B" d="M237 77.692L243.761 74 248 76.308 241.24 80 237 77.692"/>
        <path fill="#314549" d="M237.001 78L237 78.611 240.42 80.425 240.411 82.695 240.987 83 241 80.12 237.001 78"/>
        <path fill="#314549" d="M237 78L237 79 238 78.623 237 78"/>
        <g transform="translate(239 67)">
            <mask id="prefix__q" fill="#fff">
                <use xlink:href="#prefix__p"/>
            </mask>
            <path fill="#74A2AF" d="M.563.373l.054 10.063c0 .385.242.77.721 1.063.963.589 2.533.59 3.503 0 .489-.297.732-.686.731-1.075L5.518.361c.001.388-.241.777-.731 1.074-.97.59-2.54.589-3.502 0C.805 1.14.565.757.563.373" mask="url(#prefix__q)"/>
        </g>
        <path fill="#658B97" d="M240.736 66.439c-.979.586-.981 1.536-.008 2.122.97.584 2.554.586 3.533 0 .982-.586.984-1.536.012-2.12-.973-.587-2.557-.588-3.537-.002"/>
        <path fill="#93BECF" d="M227.23 62.142c3.393 8.158 12.755 12.02 20.912 8.627 8.157-3.392 12.02-12.754 8.627-20.912-3.392-8.156-12.755-12.019-20.912-8.626-8.156 3.392-12.018 12.755-8.627 20.911"/>
        <path fill="#924623" d="M187 255L197 255 197 234 187 234z"/>
        <g transform="translate(325 74)">
            <mask id="prefix__s" fill="#fff">
                <use xlink:href="#prefix__r"/>
            </mask>
            <path fill="#7BAFAB" d="M3.275 2.725L.325 1.053C1.961.131 3.445.046 4.514.653l2.951 1.672c-1.07-.607-2.554-.522-4.19.4" mask="url(#prefix__s)"/>
        </g>
        <g transform="translate(244 206)">
            <mask id="prefix__u" fill="#fff">
                <use xlink:href="#prefix__t"/>
            </mask>
            <path fill="#7BAFAB" d="M4.922 4.97L1.926 3.424C.851 2.868.184 1.687.18.01l2.996 1.547c.006 1.678.671 2.857 1.747 3.413" mask="url(#prefix__u)"/>
        </g>
        <path fill="#7BAFAB" d="M248 208L245.214 206.335 245 129 247.787 130.666 248 208M252.873 120L250 118.354 326.127 75 329 76.646 252.873 120"/>
        <path fill="#7BAFAB" d="M247.676 131L245 129.268c-.009-3.773 2.375-8.372 5.324-10.268l2.676 1.731c-2.95 1.896-5.334 6.495-5.324 10.269"/>
        <g transform="translate(244 119)">
            <mask id="prefix__w" fill="#fff">
                <use xlink:href="#prefix__v"/>
            </mask>
            <path fill="#7BAFAB" d="M3.57 11.658L.575 9.986C.564 6.342 3.234 1.9 6.537.07l2.997 1.671C6.23 3.573 3.559 8.014 3.57 11.658" mask="url(#prefix__w)"/>
        </g>
        <path fill="#252D2F" d="M329.015 76.785c3.173-1.825 5.755-.36 5.766 3.274l.219 77.386c.011 3.634-2.554 8.064-5.728 9.89l-76.286 43.881c-3.173 1.824-5.755.356-5.766-3.277l-.22-77.386c-.01-3.633 2.555-8.06 5.728-9.885l76.287-43.883"/>
        <path fill="#111210" d="M309.493 178.596L309.495 178.404 309.507 178.587 309.493 178.596"/>
        <path fill="#373835" d="M303.495 177.516L303.498 177.484 303.505 177.489 303.495 177.516"/>
        <path fill="#10100D" d="M298.507 154.474L298.507 154.526 298.493 154.486 298.507 154.474"/>
        <path fill="#886A36" d="M308.488 121.563L308.512 121.438 308.49 121.563 308.488 121.563"/>
        <path fill="#49676D" d="M304.011 91.244L310 88 309.989 90.755 304 94 304.011 91.244"/>
        <path fill="#51747B" d="M300 88.692L306.146 85 310 87.308 303.855 91 300 88.692"/>
        <path fill="#314549" d="M300.002 89L300 89.611 303.42 91.426 303.41 93.695 303.988 94 304 91.12 300.002 89"/>
        <g transform="translate(302 79)">
            <mask id="prefix__y" fill="#fff">
                <use xlink:href="#prefix__x"/>
            </mask>
            <path fill="#74A2AF" d="M4.998.056l-.046 9.461c-.001.362-.218.724-.65 1-.865.553-2.278.555-3.15 0-.44-.28-.659-.645-.658-1.011L.541.045c0 .366.219.732.658 1.01.874.555 2.285.554 3.15 0C4.781.78 5 .418 5 .056" mask="url(#prefix__y)"/>
        </g>
        <path fill="#658B97" d="M306.264 78.439c.979.586.981 1.536.007 2.122-.97.585-2.553.586-3.533 0s-.983-1.536-.012-2.12c.974-.587 2.557-.588 3.538-.002"/>
        <path fill="#93BECF" d="M322.808 74.45c-3.286 7.903-12.356 11.644-20.26 8.358-7.901-3.286-11.643-12.356-8.355-20.258 3.286-7.903 12.355-11.644 20.257-8.358 7.903 3.286 11.644 12.356 8.358 20.258"/>
        <g transform="translate(322 72)">
            <mask id="prefix__A" fill="#fff">
                <use xlink:href="#prefix__z"/>
            </mask>
            <path fill="#B6DCE4" d="M-5.368 14.02l-2.243-3.16C-4.293 10.395-.577 7.35.69 4.056c.628-1.633.536-3.023-.123-3.951l2.245 3.161c.659.927.75 2.317.12 3.952-1.267 3.292-4.982 6.339-8.301 6.801" mask="url(#prefix__A)"/>
        </g>
        <path fill="#407E96" d="M324.803 77.59c.017-.058.028-.113.043-.17.029-.11.06-.22.08-.325.013-.071.019-.138.028-.207.014-.089.03-.179.036-.265.006-.072.003-.14.005-.21.002-.08.008-.16.003-.234v-.008c-.025-.568-.192-1.061-.483-1.456L322.509 72c.294.398.462.894.486 1.465.003.062-.002.126-.005.189 0 .084.003.168-.004.256-.006.072-.021.15-.031.225-.011.082-.018.162-.033.246-.02.096-.048.195-.073.295-.018.066-.028.131-.05.2-.05.17-.111.342-.18.517-1.134 2.83-4.453 5.444-7.418 5.842-1.49.2-2.605-.2-3.201-1.008l2.004 2.715c.597.807 1.711 1.207 3.201 1.007 2.966-.397 6.285-3.013 7.416-5.84.072-.177.132-.35.182-.519"/>
        <g transform="translate(318 70)">
            <mask id="prefix__C" fill="#fff">
                <use xlink:href="#prefix__B"/>
            </mask>
            <path fill="#434A4B" d="M2.301 3.521L.282.361c1.504-.233 2.63.233 3.23 1.173l2.02 3.162c-.601-.941-1.726-1.408-3.231-1.175" mask="url(#prefix__C)"/>
        </g>
        <g transform="translate(311 71)">
            <mask id="prefix__E" fill="#fff">
                <use xlink:href="#prefix__D"/>
            </mask>
            <path fill="#434A4B" d="M2.69 11.992L.71 9.338C.13 8.558.049 7.39.605 6.016 1.723 3.25 5 .692 7.924.303l1.979 2.655c-2.922.388-6.2 2.947-7.32 5.713-.556 1.374-.473 2.542.107 3.321" mask="url(#prefix__E)"/>
        </g>
        <path fill="#343939" d="M321.14 72.05c3.097-.385 4.645 1.521 3.463 4.254-1.184 2.734-4.65 5.263-7.75 5.647-3.091.384-4.638-1.522-3.456-4.256 1.184-2.735 4.651-5.263 7.742-5.646"/>
        <path fill="#74A2AF" d="M323.973 70.53c-.92-1.167-2.643-1.746-4.946-1.456-4.57.574-9.69 4.354-11.44 8.445-.868 2.031-.741 3.758.167 4.91L309.782 85c-.908-1.152-1.036-2.878-.167-4.91 1.749-4.09 6.87-7.871 11.44-8.445 2.303-.29 4.027.29 4.945 1.457l-2.027-2.571"/>
        <path fill="#B6DCE4" d="M316.578 84.195c2.876-.377 6.094-2.863 7.191-5.549 1.1-2.687-.338-4.56-3.213-4.182-2.869.377-6.087 2.862-7.186 5.548-1.099 2.687.337 4.56 3.208 4.183zm4.956-12.121c4.387-.576 6.58 2.282 4.902 6.383-1.677 4.102-6.588 7.893-10.975 8.469-4.382.577-6.575-2.282-4.897-6.384 1.677-4.1 6.587-7.893 10.97-8.468z"/>
        <path fill="#314549" d="M299.003 90L299.003 91 299.997 90.623 299.003 90"/>
        <path fill="#D14547" d="M255.814 129.644c-.523 2.18-1.983 3.659-3.26 3.303-1.277-.355-1.89-2.41-1.367-4.591.522-2.18 1.98-3.66 3.26-3.303 1.276.356 1.889 2.41 1.367 4.591"/>
        <path fill="#1E5674" d="M317.943 94.21c4.907-2.812 8.903-.556 8.92 5.039l.137 48.335c.017 5.594-3.953 12.413-8.86 15.224l-54.083 30.981c-4.91 2.814-8.903.556-8.919-5.039L255 140.415c-.016-5.594 3.951-12.411 8.861-15.224l54.082-30.981"/>
        <path fill="#CAA983" d="M319.362 163.722c.56-.324 1.107-.706 1.638-1.127l-.07-30.528c-.006-1.99-1.642-2.656-3.651-1.5l-48.647 28.389c-2.01 1.16-3.638 3.711-3.632 5.699l.07 30.345c.216-.107.431-.211.651-.338l53.64-30.94"/>
        <path fill="#102323" d="M311.831 150.633c2.82 1.79 4.513 12.463 4.11 14.33L310.886 168l.087-.898c.588-12.314-.478-16.469-2.896-18.058L308 149c1.202.206 2.463.766 3.831 1.633"/>
        <path fill="#6B3D23" d="M305.762 143.08V143c.019.116.347 2.335.2 3.091-.132.68-.727 1.826-1.517 3.035-1.143 1.749-2.697 3.627-3.863 4.417-.05.034-.104.068-.159.1-.118.068-.244.132-.379.191-1.278.555-3.341.735-5.578 1.012-2.262.28-3.065.278-3.551-.867-.244-.567-.471-1.477-.638-2.25-.17-.777-.27-1.381-.277-1.413.043.07.841 1.433 1.433 2.246.397.569 3.433 1.15 5.776.536 1.055-.277 2.085-.628 3.046-1.187.857-.5 1.66-1.164 2.375-2.086.19-.247.592-.821.913-2.054.214-.817.39-1.086.512-1.156.112-.065.171.037.175.042.017.018.343.35.754.111l.068-.046c.62-.451.701-3.14.71-3.642"/>
        <path fill="#122B2D" d="M307.828 149.226c2.51 1.57 3.618 5.675 3.007 17.838l-.09.887L280.914 185c.514-1.89.873-3.45 1-4.481.752-6.087-1.74-8.647-4.563-7.034-1.125.644-2.304 1.952-3.35 3.961.917-2.584 2.515-4.608 2.6-4.714 1.47-2.14 10.847-13.2 13.173-15.937.029.51.043 1.032.04 1.566-.017 3.293 3.973 4.57 7.136 2.763 1.573-.899 2.942-2.562 3.512-5.119l-.412-1.885c.137-.06.266-.124.386-.192.057-.032.11-.066.162-.1 1.192-.793 2.779-2.677 3.947-4.432 1.424-.407 2.577-.539 3.204-.213l.08.043"/>
        <path fill="#E1BB9B" d="M294.563 155.038c2.406-.285 4.627-.468 6.002-1.038l.435 1.927c-.6 2.613-2.043 4.313-3.7 5.232-3.333 1.847-7.536.541-7.519-2.824.004-.546-.011-1.08-.042-1.6-.02-.338-.046-.668-.078-.993-.096-1.322-.31-3.85-.661-5.742.159.107.315.195.472.264.215.544.385 1.087.583 1.579.18.792.423 1.725.686 2.305.524 1.175 1.388 1.176 3.822.89"/>
        <path fill="#6B3D23" d="M304.491 118.008c1.342.17 1.84 2.867 1.287 5.261-.268 1.155-.338 1.702-.8 2.934-.305.814-.78 1.929-1.599 3.72-2.207 4.842-6.926 9.695-7.341 9.938.512-1.424.787-4.126.185-3.775l-.095.073c-.678.64-1.57 2.917-2.404 7.092-.39 1.968-1.18 3.211-1.81 3.93-.51.58-.893.806-.914.819.007-.041.145-.816.287-2.753.125-1.713.246-4.3.259-7.977.015-3.32 1.477-4.73 3.876-10.386 1.926-4.52 6.432-7.492 8.156-8.5.43-.252.675-.374.688-.38.079-.007.153-.004.225.004"/>
        <path fill="#E1BB9B" d="M305.379 127.41c0 3.228.544 12.988.57 13.502.016 1.048.036 1.898.051 2.602-.008.512-.09 3.254-.708 3.715l-.069.047c-.41.243-.735-.095-.752-.113-.004-.005-.063-.11-.175-.044-.121.072-.297.347-.511 1.18-.32 1.257-.721 1.843-.911 2.095-.714.94-1.516 1.617-2.372 2.127-.96.57-1.987.929-3.04 1.212-2.34.625-5.37.033-5.767-.548-.591-.83-1.388-2.218-1.431-2.29.006.032.107.649.276 1.442-.183-.49-.34-1.03-.54-1.57.505.233 1.014.23 1.538-.082.206-.122.414-.29.625-.511.819-.86.563-2.291.55-2.366l-.278-.875c.617-.717 1.393-1.957 1.775-3.921.819-4.166 1.693-6.438 2.358-7.077l.094-.073c.59-.35.32 2.346-.207 3.76.432-.235 5.06-5.078 7.226-9.91.804-1.787 1.27-2.9 1.569-3.712.08.462.127.933.129 1.41"/>
        <path fill="#F3D3BA" d="M292.711 146.197l.247.831c.011.072.238 1.433-.487 2.251-.187.21-.371.37-.554.487-.463.296-.914.3-1.36.077-.13-.066-.258-.15-.389-.25-.046-.036-.093-.075-.14-.117-.044-.036-1.203-.98-1.262-1.05-.916-.95-1.26-3.223.402-5.53.245-.341.478-.567.694-.706 1.27-.812 2.022 1.24 2.062 1.347l.243.824c-.123 1.839-.243 2.574-.25 2.613.02-.012.352-.226.794-.777"/>
        <path fill="#6B3D23" d="M303.577 117.6c.193.064.33.125.423.19-.071-.008-.145-.01-.223-.004-.013.006-.255.128-.682.38-1.709 1.004-6.174 3.967-8.082 8.473-2.378 5.638-3.826 7.044-3.84 10.354-.014 3.666-.134 6.245-.257 7.952l-.278-.865c-.046-.113-.904-2.268-2.354-1.415-.247.146-.512.383-.791.74-1.898 2.425-1.505 4.813-.459 5.81.067.073 1.39 1.065 1.44 1.103.054.043.107.085.16.122.329 1.88.53 4.393.62 5.707.038.547.054.869.054.885l-.114.073c-.67.392-2.08.956-3.232.89-.704-.037.246-2.139-.646-3.445-.759-1.113-3.669-5.29-4.315-5.984-5.26-5.72.315-22.731 11.312-29.197 1.868-1.098 3.891-1.891 6.044-2.274 1.608-.294 4.114.157 5.22.505"/>
        <path fill="#173E3E" d="M278.02 173.475c2.992-1.622 5.633.953 4.836 7.077-.134 1.037-.515 2.606-1.06 4.507L269 192c1.603-4.844 3.203-9.382 4.563-12.642.29-.69.592-1.322.907-1.897 1.108-2.022 2.358-3.338 3.55-3.986"/>
        <path fill="#4F848E" d="M351.056 256c-14.934 0-27.394-6.21-30.303-14.47 1.265-2.503-15.554-5.95-22.123-8.338-8.338-3.03 4.209-7.173 22.73-7.173.564 0 1.134.004 1.709.011.247.004.483.006.715.006 18.053-.002-7.997-10.108-2.029-11.941.21-.065.541-.095.974-.095 4.56 0 20.408 3.382 25.188 5.759 1.031-.062 2.079-.093 3.139-.093 17.09 0 30.944 8.134 30.944 18.167C382 247.867 368.146 256 351.056 256"/>
        <path fill="#FDFDFC" d="M342.105 214.545s1.054 1.483.874 4.01c-.18 2.525-.555 3.497-1.202 3.968-.644.474-1.45.584-2.974.377-1.527-.208-3.972-1.688-4.892-1.961-.92-.277-.658-.282-3.944-1.31-4.626-1.448-5.417-2.678-5.796-3.904-.385-1.248 0-2.67 0-2.67 3.873.743 9.08 1.998 10.554.44 1.475-1.555 7.38 1.05 7.38 1.05"/>
        <path fill="#E3685A" d="M342.088 213.194s1.073 1.536.891 4.147c-.183 2.617-.567 3.616-1.223 4.107-.657.49-1.87.678-3.425.465-1.556-.217-1.815-.352-2.707-.759-1.488-.676-2.083-1.278-5.206-1.956-4.113-.89-6.08-2.695-6.396-3.987-.279-1.137 2.082-2.855 5.205-2.404 4.49.648 4.217-.407 5.344-.696 2.123-.543 7.517 1.083 7.517 1.083"/>
        <path fill="#33526F" d="M338.944 218.765c.915-2.279 3.71-3.7 3.71-3.7l.14-.065c.15.662.25 1.486.186 2.464-.183 2.688-.566 3.715-1.222 4.22-.656.503-1.969 1.505-3.523 1.285-.076-.011-.156-.027-.235-.04.092-.943.327-2.63.944-4.164"/>
        <path fill="#454543" d="M368.986 247.822c.005-.748.68-1.048 1.516-.673.835.375 1.51 1.281 1.506 2.034-.004.74-.68 1.045-1.515.669-.829-.373-1.511-1.283-1.507-2.03zm-.986-.444c-.004 1.237 1.111 2.74 2.489 3.353 1.383.623 2.504.126 2.511-1.105.005-1.24-1.115-2.737-2.49-3.36-1.38-.617-2.505-.124-2.51 1.112z"/>
        <path fill="#6E6E6B" d="M370.505 246.214c-.83-.496-1.5-.1-1.505.889-.004.987.673 2.19 1.496 2.684.829.496 1.5.095 1.504-.884.004-.996-.667-2.194-1.495-2.69"/>
        <path fill="#353633" d="M370.64 245.134c.361-.21.852-.182 1.402.143 1.087.639 1.96 2.184 1.958 3.469 0 .627-.218 1.069-.573 1.282l-1.635.972c.352-.206.574-.654.574-1.286.004-1.279-.878-2.824-1.961-3.468-.547-.32-1.047-.348-1.405-.138l1.64-.974"/>
        <path fill="#454543" d="M335.987 228.822c0-.75.685-1.047 1.521-.671.832.374 1.505 1.281 1.505 2.03-.004.744-.68 1.046-1.519.67-.83-.372-1.51-1.281-1.507-2.03zm-.987-.441c-.007 1.23 1.109 2.732 2.494 3.353 1.381.618 2.502.121 2.506-1.108.001-1.238-1.108-2.74-2.492-3.36-1.385-.617-2.505-.124-2.508 1.115z"/>
        <path fill="#6E6E6B" d="M337.508 227.215c-.829-.497-1.508-.104-1.508.887-.003.99.672 2.192 1.494 2.684.83.497 1.502.098 1.506-.887 0-.99-.668-2.19-1.492-2.684"/>
        <path fill="#353633" d="M337.636 226.134c.358-.21.855-.181 1.407.143 1.084.64 1.96 2.19 1.957 3.467 0 .632-.22 1.078-.574 1.285l-1.643.971c.356-.208.576-.654.576-1.283 0-1.279-.872-2.83-1.96-3.471-.55-.321-1.043-.354-1.399-.14l1.636-.972"/>
        <path fill="#454543" d="M338.963 245.278c.547-.324 1.043-.356 1.4-.143.139.081.271.164.409.241.191.116.382.23.574.342.218.13.435.258.654.391-.357-.216-.851-.185-1.397.14-.232.131-.451.318-.657.525l.657.385c-.657.387-1.185 1.326-1.184 2.093.004.384.138.651.348.78l-1.103-.654c-.01.114-.027.225-.027.332.004.633.225 1.079.575 1.29l-1.638-.975c-.352-.205-.572-.652-.574-1.286-.004-1.274.872-2.825 1.963-3.46"/>
        <g transform="translate(340 245)">
            <mask id="prefix__G" fill="#fff">
                <use xlink:href="#prefix__F"/>
            </mask>
            <path fill="#454543" d="M2.097 1.66L.223.573c.244.138.394.443.399.875 0 .86-.606 1.91-1.354 2.346L1.141 4.88c.75-.432 1.357-1.484 1.352-2.349 0-.425-.149-.73-.396-.87" mask="url(#prefix__G)"/>
        </g>
        <path fill="#393A37" d="M339.994 250.177c-.001-.743.669-1.653 1.503-2.027.83-.373 1.512-.07 1.512.672.006.746-.668 1.655-1.501 2.027-.835.372-1.51.072-1.514-.672zm-.994.444c.007 1.235 1.133 1.732 2.51 1.112 1.38-.62 2.5-2.123 2.49-3.357-.003-1.231-1.124-1.73-2.503-1.108-1.383.618-2.497 2.124-2.497 3.353z"/>
        <path fill="#757571" d="M341.495 247.212c.826-.495 1.505-.093 1.505.89.005.99-.665 2.193-1.494 2.687-.83.492-1.502.095-1.506-.89-.001-.985.665-2.19 1.495-2.687"/>
        <path fill="#454543" d="M371.963 227.276c.548-.323 1.04-.353 1.401-.14.134.082.271.16.412.242.182.115.379.233.57.34.217.133.435.259.654.391-.357-.212-.853-.183-1.4.135-.234.138-.449.325-.653.53l.654.386c-.654.387-1.183 1.323-1.183 2.094.005.382.137.65.35.779l-1.102-.653c-.016.112-.03.222-.03.331.003.635.224 1.08.58 1.289l-1.643-.973c-.354-.21-.57-.652-.573-1.283-.005-1.276.877-2.827 1.963-3.468"/>
        <path fill="#393A37" d="M371.993 231.177c0-.746.67-1.652 1.5-2.027.834-.375 1.51-.072 1.514.672.005.745-.669 1.656-1.5 2.03-.832.371-1.509.072-1.514-.675zm-.993.443c.004 1.233 1.13 1.734 2.51 1.113 1.375-.62 2.493-2.122 2.49-3.356-.007-1.23-1.13-1.728-2.507-1.114-1.38.62-2.493 2.125-2.493 3.357z"/>
        <path fill="#757571" d="M373.493 228.213c.83-.496 1.504-.096 1.507.89.005.986-.665 2.191-1.493 2.686-.828.492-1.502.096-1.507-.892 0-.988.668-2.188 1.493-2.684"/>
        <path fill="#383936" d="M337.65 223.92l15.342 9.07L353 236l-15.341-9.066c-.432-.252-.647-.586-.647-.921L337 223c0 .334.216.67.65.92"/>
        <path fill="#2A2B29" d="M374.338 223.933c.436-.256.657-.595.657-.933l.005 3.008c.002.338-.213.672-.655.933L359.005 236l-.005-3.007 15.338-9.06"/>
        <path fill="#3B3C39" d="M337.655 222.374c.862-.499 2.262-.499 3.127 0l15.218 8.82-.009.616-16.333-9.463c-.247-.144-.649-.144-.895 0-.246.142-.251.377-.002.518l16.334 9.461-2.229.674-15.223-8.821c-.861-.5-.857-1.303.012-1.805"/>
        <path fill="#424240" d="M373.248 222.347c-.25-.143-.655-.143-.896 0L356 231.806l.009-.617 15.243-8.818c.86-.497 2.253-.496 3.11.003.855.501.85 1.305-.012 1.806L359.113 233l-2.224-.677 16.355-9.457c.245-.14.245-.376.004-.519"/>
        <path fill="#2A2B29" d="M339.3 222.112c-.247.148-.251.393-.003.54l16.309 9.844-16.421 9.851c-.247.147-.247.39 0 .538.244.153.644.153.895 0l16.42-9.846 16.307 9.846c.251.153.652.153.9 0 .243-.148.247-.389 0-.538l-16.314-9.85 16.422-9.845c.246-.147.246-.392.004-.54-.25-.15-.658-.15-.9-.001l-16.419 9.848-16.307-9.847c-.247-.15-.648-.15-.893 0"/>
        <path fill="#2A2B29" d="M337.64 243.458c.857.532 2.245.532 3.11 0L355.993 234l.007 3.14-15.24 9.46c-.868.534-2.255.534-3.112 0-.424-.264-.64-.616-.642-.966l-.006-3.139c0 .342.212.697.64.963"/>
        <path fill="#454543" d="M337.651 241.758l15.241-9.066 2.217-.692-16.357 9.732c-.245.145-.245.385 0 .53.244.153.642.153.892 0L356 232.537l-.007 2.016-15.241 9.066c-.864.51-2.253.51-3.109 0-.859-.51-.859-1.344.008-1.86M356.007 232.536l16.327 9.726c.252.152.653.152.9 0 .245-.146.249-.383 0-.53L356.902 232l2.235.696 15.216 9.062c.869.518.862 1.349-.007 1.864-.866.505-2.262.505-3.128-.005L356 234.552l.007-2.016"/>
        <path fill="#383936" d="M371.212 243.458c.866.531 2.262.531 3.128.005.439-.272.653-.626.653-.979l.007 3.144c.005.348-.214.701-.653.971-.864.534-2.26.535-3.125-.001l-15.215-9.458L356 234l15.212 9.458"/>
        <path fill="#2A2B29" d="M354 224.616c0-.401.232-.81.706-1.126.955-.638 2.532-.656 3.516-.036.504.313.755.732.76 1.15l.018 7.777-.026.166-.018.13c-.016.059-.048.118-.077.176l-.051.124c-.042.057-.095.122-.147.186l-.077.091c-.09.089-.193.177-.311.252-.958.643-2.535.66-3.517.041-.122-.079-.235-.16-.328-.247l-.078-.096c-.056-.06-.115-.123-.16-.189l-.058-.12c-.026-.06-.062-.117-.083-.179l-.024-.136c-.008-.06-.026-.115-.026-.172v-.012c-.007-2.332-.011-5.445-.019-7.78"/>
        <path fill="#8E8F8B" d="M355.421 218.236c.574-.306 1.52-.315 2.11-.022.3.154.453.353.456.553l.013 5.461-.013.077-.012.062-.043.082-.033.06-.082.084-.056.05c-.048.044-.11.084-.179.122-.576.305-1.524.314-2.115.02-.073-.036-.137-.078-.192-.122l-.05-.044-.092-.085-.041-.063-.044-.085-.014-.066-.016-.084v-.003c-.001-.818-.005-1.776-.01-2.731l-.008-2.727c-.004-.195.136-.388.421-.539"/>
        <path fill="#454543" d="M341.076 219.122l.112-.119c.09-.083.179-.167.275-.243l.11-.089c.126-.095.257-.188.39-.261l7.037-4.009-.696-.401-7.036 4.013c-.129.071-.262.162-.387.26l-.123.1c-.086.07-.17.147-.255.23l-.126.124c-.09.093-.17.193-.255.293l-.087.106-.027.03c-.105.136-.206.28-.295.432l-3.713 6.01.694.402 3.71-6.013c.102-.165.211-.319.323-.47l.077-.088c.09-.108.176-.213.272-.307M335.624 225.894l-.624-.656c.145-.152.277-.17.376-.07l.624.652c-.093-.096-.227-.084-.376.074"/>
        <path fill="#646561" d="M335.3 225.04c-.11-.065-.258-.053-.42.047l-3.291 1.999-.154.122-.036.036-.125.145-.01.01-.005.01-.098.154-.019.046-.06.13-.007.017-.01.028-.038.147-.01.052c-.016.06-.017.121-.017.185 0 .198.062.335.173.406l.702.426c-.111-.065-.176-.203-.176-.408 0-.054.007-.119.017-.179l.013-.06.04-.13.02-.06.054-.12.023-.049.097-.158.022-.03.11-.132.044-.04.154-.12 3.286-1.999c.167-.103.317-.11.421-.048l-.7-.426"/>
        <path fill="#242523" d="M349 215v.436l-6.797 3.767c-.459.257-.9.69-1.24 1.219l-3.696 5.821c.004.349-.246.77-.562.942l-3.137 1.742c-.315.172-.566.03-.568-.32 0-.34.25-.766.566-.937l3.134-1.736c.162-.092.309-.098.413-.033l3.585-5.652c.409-.645.946-1.172 1.505-1.481L349 215"/>
        <path fill="#FDFDFC" d="M317.683 225.237s1.285 1.58 1.315 4.46c.03 2.88-.294 4.012-.955 4.606-.66.596-1.982 1.786-3.665 1.692-1.686-.096-3.81-.66-4.84-.888-1.027-.226-1.813-.094-5.489-.954-5.176-1.215-8.334-4.572-8.857-5.928-.532-1.377.21-3.589.21-3.589 4.292.49 12.668 1.993 14.137.094 1.47-1.899 8.144.507 8.144.507"/>
        <path fill="#E3685A" d="M317.69 223.238s1.28 1.58 1.308 4.457c.03 2.88-.292 4.014-.95 4.609-.656.595-1.97 1.785-3.643 1.69-1.672-.095-3.782-.658-4.804-.887-1.022-.228-2.397.393-6.04-.51-3.644-.908-7.703-4.097-8.152-5.48-.393-1.223-1.453-4.539 2.812-4.05 4.262.486 9.92 1.562 11.38-.337 1.458-1.9 8.09.508 8.09.508"/>
        <path fill="#33526F" d="M314.675 229.917c.81-2.255 3.756-3.844 3.756-3.844l.146-.073c.227.62.41 1.403.42 2.342.033 2.584-.3 3.602-.978 4.136-.678.534-2.033 1.602-3.758 1.517-.085-.004-.175-.014-.261-.02.016-.912.132-2.543.675-4.058M305.305 228.915c.189.212.515-.006.517-.285 0 0-.034-.777.132-1.687.233-1.273.921-2.15 1.474-2.397.23-.102.625-.032.566-.26-.052-.216-.293-.343-.513-.26-.696.267-2.052 1.005-2.373 2.784-.192 1.059-.128 1.743.197 2.105M303.302 228.915c.194.212.515-.008.52-.284 0 0-.033-.777.132-1.688.236-1.275.909-2.045 1.463-2.292.226-.104.635-.14.578-.368-.055-.211-.296-.341-.515-.257-.697.266-2.047 1.004-2.372 2.784-.193 1.055-.127 1.742.194 2.105"/>
        <path fill="#33526F" d="M302.304 228.914c.19.214.517-.005.519-.284 0 0-.032-.776.132-1.684.233-1.277.915-2.033 1.474-2.283.227-.1.622-.15.566-.376-.056-.215-.295-.345-.514-.262-.697.268-2.049 1.006-2.376 2.787-.188 1.054-.125 1.74.2 2.102"/>
        <path fill="#F8F7F5" d="M308.992 230c.727.267 1.458.5 2.008.578l-.017.094-4.938 2.328c-.406-.082-.846-.189-1.337-.34-.23-.073-.468-.162-.708-.267.967-.478 3.196-1.57 4.992-2.393M305.886 229c.762.267 1.535.498 2.114.58l-.02.089-5.2 2.331c-.208-.039-.424-.087-.65-.14-.383-.196-.758-.413-1.13-.644 1.148-.533 3.192-1.482 4.886-2.216"/>
        <path fill="#4C647A" d="M326.305 193l-6.513 5.62c-3.036 6.463-7.134 18.314-10.74 25.883-.372.78 1.216 4.997 6.002 4.448 2.38-.274 4.985-1.14 4.846-1.914l11.1-27.253-4.695-6.784"/>
        <path fill="#394E5E" d="M335.748 197.052l-3.744-.036s-.07 16.32.385 16.798c.606.633 4.498 5.15 7.94 4 3.633-1.212 3.317-1.122 3.14-2.209L346 194l-10.252 3.052"/>
        <path fill="#203A43" d="M336.36 202.488l20.026-11.173c.659-.37 1.254-.401 1.683-.161L378 202.25c-.43-.24-1.028-.205-1.686.164l-20.026 11.17c-1.31.73-2.359 2.492-2.355 3.945 0 .723.261 1.23.686 1.471-4.917-2.762-15.016-8.342-19.93-11.098-.423-.24-.688-.746-.689-1.467-.006-1.453 1.049-3.217 2.36-3.947"/>
        <path fill="#30525A" d="M356.283 213.449c-1.27.726-2.287 2.484-2.283 3.932.002 1.45 1.033 2.032 2.296 1.308l19.415-11.14c1.27-.728 2.294-2.488 2.289-3.933-.004-1.45-1.031-2.03-2.305-1.302l-19.412 11.135"/>
        <path fill="#394E5E" d="M367.493 193.524l-7.045-3.36-14.9-6.195c-3.74-1.82-13.017-1.747-12.813 6.232L332 202.674l16.1-2.22s11.117 4.987 15.922 4.514c8.574-.839 3.47-11.444 3.47-11.444"/>
        <path fill="#4C647A" d="M368.118 206.955c3.641-2.845 3.882-11.298 3.882-11.298L369.976 180l-15.574 8.132-5.057 7.728-20.789-3.42c-4.954-1.526-8.917 1.28-10.556 10.431l4.239 1.326s1.59 3.612 4.134.686c1.415-1.628 2.183-.915 2.183-.915l22.572 6.039c9.586 2.562 13.514-.332 16.99-3.052"/>
        <path fill="#EECEB5" d="M338.732 173s-8.69-.621-9.849-.737c-3.146-.313-4.99-1.878-4.611-2.453.76-1.148-.27-3.288-.27-3.288s-.055-.522.541-.522c.625 0 1.194 2.088 1.954 2.714.582.48 1.953.731 1.953.731s1.572.574 2.257-.523c.33-.533-1.235-.443-1.824-.73-.412-.2-1.28-.765-1.314-1.239-.05-.71.623-.81.623-.81s.386.038 2.281.975c1.522.75 2.812.292 3.686.732 1.205.608 1.67 1.744 1.67 1.744l3.171.142-.268 3.264"/>
        <path fill="#BD612E" d="M359.412 156s11.237 1.618 6.362 15.244c-.453 1.268-3.83 2.935-5.845 6.044 0 0-2.417 3.62-7.748 2.495-3.974-.838-18.944-6.328-18.944-6.328s-.71-.867.33-3.36c.688-1.653 1.841-2.033 1.841-2.033l16.523 2.643 7.48-14.705"/>
        <path fill="#EECEB5" d="M356.197 129.677l-6-1.677-3.794 15.417c-1.173 4.395.457 5.645 1.782 6.083 2.75.913 6.322.373 8.164-.03 3.566-.774 5.185-5.833 5.345-6.234l4.306-9.729-9.803-3.83"/>
        <path fill="#EECEB5" d="M364.262 153.07s-2.41-2.396-2.926-3.373c-.817-1.54-1.735-6.697-1.735-6.697l-7.993 2.514s1.326 5.05 1.961 6.712c.395 1.037 2.165 4.096 2.165 4.096.124 1.271-6.103 10.727-5.717 14.678L365 164.952c-.165-1.683-.738-11.882-.738-11.882"/>
        <path fill="#DBB02E" d="M351.862 125.947c-.616-.119.445.906.303.991-1.932 1.154-2.69.91-3.115.632-.236-.152.405 4.002 1.034 4.386 1.186.726 1.832 5.641 1.47 7.367 0 0 .018-.67.597-1.004.587-.342 1.833-.12 1.882 3.432 0 0 .362 3.021 2.319 3.953 2.172 1.034 2.31 2.314 2.304 3.296 0 0 .373-1.046.981-1.138.514-.081.868.399.75.55-.085.108 1.03-1.424 4.262-4.016 6.45-5.179 5.688-10.784 4.686-12.612-.459-.836-.986-3.757-9.423-5.721-.449-.103-2.978-.591-4.176-2.058-.065-.08-.064.798.512 1.672.197.302-1.98-.115-2.848-.834-.265-.22.256 1.174.398 1.3.34.307-1.936-.196-1.936-.196"/>
        <path fill="#EBC9A9" d="M352.712 137s1.432.714 1.276 2.419c-.113 1.203-.939 1.963-1.295 2.15-.948.501-1.693.427-1.693.427s1.148-2.593 1.326-3.083c.178-.49.386-1.913.386-1.913"/>
        <path fill="#F1D2B7" d="M352.422 136.03s-.592-.263-.493.777c.101 1.039.006 1.606-.162 2.105-.156.46-.767 1.769-.767 1.769s.171.703.845.021c.321-.325.714-1.03 1.054-1.999.137-.394.25-2.618-.477-2.674"/>
        <path fill="#D37036" d="M350.178 161.654c-1.559 1.928-1.311 7.696-.73 13.921l1.096 16.464c.101 1.083-1.704 9.328 2.923 11.38 1.625.719 7.21 3.76 11.04 2.084 1.568-.683 8.702-5.552 8.488-7.83l-2.233-34.689C370.03 154.268 362.48 151 362.48 151l-6.333 4.72-5.97 5.934"/>
        <path fill="#EECEB5" d="M331.902 190.17s-4.846-.382-6.687 0c-1.84.38-7.27 2.474-7.27 2.474s-1.55.57-.68 1.523c.418.453 1.65 1.142 2.134 1.523.486.383 1.94.475 4.846-.095 1.524-.3 2.23-.286 3.976-.097 1.743.192 3.779-.568 3.779-.568l-.098-4.76"/>
        <path fill="#E8894F" d="M330.723 192.147c1.049 2.058 2.309 2.853 2.309 2.853s11.528-3.82 13.072-4.37c2.228-.79 3.054-1.573 4.526-3.346 2.72-3.27 6.357-13.924 6.357-13.924s2.928-7.134-1.172-10.487c-3.02-2.471-6.317-2.712-7.17.58-.792 3.065-3.153 12.866-4.265 16.625-.41 1.39-1.428 2.542-2.784 3.09l-10.119 4.773s-1.073.143-1.432 1.364c-.195.662.284 2.072.678 2.842"/>
        <path fill="#2A2B29" d="M367 187v26.775c-1.358.67-3-.236-3-1.647v-24.28l3-.848"/>
        <path fill="#454543" d="M366.5 187.048c.745-.211 1.5.306 1.5 1.031v23.43c0 .98-.577 1.896-1.5 2.371-.672.348-1.5-.103-1.5-.814v-24.13c0-.866.61-1.631 1.5-1.888"/>
        <path fill="#203A43" d="M376.5 171.13s-1.743-.722-2.595 1.235c-.994 2.283-1.355 3.597-6.143 5.775-3.408 1.55-6.23 1.722-8.726 1.772-4.631.093-7.106 2.228-7.034 5.684.089 4.19 4.272 5.273 4.66 5.31 5.222.495 6.958-.985 12.902-3.749 5.306-2.465 7.263-4.837 7.428-8.637.081-1.906-.492-7.39-.492-7.39"/>
        <path fill="#30525A" d="M376.477 172s.702 5.483-7.333 8.315c-4.494 1.585-7.476 2.113-10.078 2.316-3.535.274-6.325 1.096-6.047 4.297.225 2.577 1.47 4.353 4.001 4.662 2.977.367 5.526 1.102 11.91-1.187 5.43-1.947 7.89-5.385 8.062-9.115.085-1.871-.515-9.288-.515-9.288"/>
    </g>
</svg>
