<svg xmlns="http://www.w3.org/2000/svg" width="155" height="25" viewBox="0 0 155 25"><g fill="none"><g><path fill="#924623" d="M78.573 17.733c1.163 0 2.154-.192 2.973-.575.819-.383 1.45-.912 1.894-1.587.444-.675.666-1.441.666-2.3 0-.736-.146-1.376-.436-1.92-.291-.545-.681-1.013-1.171-1.404-.49-.39-1.033-.74-1.63-1.046-.597-.307-1.186-.583-1.768-.828-.72-.322-1.366-.644-1.94-.966-.574-.322-1.03-.686-1.366-1.093-.337-.406-.505-.908-.505-1.506 0-.675.252-1.25.757-1.725.505-.475 1.187-.713 2.044-.713.842-.015 1.546.165 2.112.54.566.376 1.01.878 1.332 1.507.32.629.52 1.334.596 2.116h1.057V1.081H81.81l.092.966c-.597-.43-1.26-.728-1.986-.897-.727-.169-1.381-.253-1.963-.253-.964 0-1.764.134-2.4.403-.634.268-1.136.617-1.503 1.046-.367.43-.628.882-.78 1.357-.154.475-.23.928-.23 1.357 0 .736.138 1.376.413 1.92.276.545.65 1.016 1.125 1.415.474.399 1.006.751 1.596 1.058.589.307 1.197.598 1.825.874.627.276 1.228.567 1.802.874.574.307 1.049.675 1.424 1.104.375.43.562.958.562 1.587 0 .537-.138 1.004-.413 1.403-.276.399-.65.705-1.125.92-.475.215-1.003.322-1.584.322-1.164 0-2.162-.341-2.996-1.023-.835-.683-1.313-1.691-1.435-3.025h-1.102l.091 5.06h1.4l-.114-.966c.597.368 1.259.652 1.986.851.727.2 1.42.299 2.078.299zm12.469-.368v-1.219c-.214.015-.448.027-.7.034-.253.008-.502.02-.747.035.031-.291.054-.579.07-.863.015-.283.022-.563.022-.839V8.257c.322-.353.724-.644 1.206-.874.482-.23.975-.353 1.48-.368.827-.015 1.428.28 1.803.886.375.605.562 1.514.562 2.725l.023 3.22c0 .506-.019.95-.057 1.334-.038.383-.153.682-.345.897-.19.215-.516.322-.975.322v.966h5.142v-1.219c-.214.015-.451.027-.711.034-.26.008-.513.02-.758.035.046-.291.073-.579.08-.863.008-.283.012-.563.012-.839v-3.887c-.015-1.763-.318-3.059-.907-3.887-.59-.828-1.565-1.242-2.927-1.242-.383 0-.792.065-1.229.196-.436.13-.86.302-1.274.517-.413.215-.788.46-1.125.736V0h-.85c-.106.107-.27.207-.493.299-.222.092-.54.172-.953.241-.413.07-.964.104-1.653.104v1.219c.245-.015.513-.027.804-.034.29-.008.566-.02.826-.035-.03.307-.05.594-.057.862-.008.269-.011.533-.011.794v10.396c0 .506-.023.95-.07 1.334-.045.383-.16.682-.344.897-.183.215-.505.322-.964.322v.966h5.12zm11.734-13.846c.398 0 .731-.15.999-.449.268-.298.402-.663.402-1.092 0-.43-.134-.793-.402-1.093-.268-.299-.6-.448-.999-.448-.367 0-.696.15-.987.448-.29.3-.436.664-.436 1.093 0 .43.138.794.413 1.093.276.298.612.448 1.01.448zm2.663 13.846v-1.219c-.214.015-.447.027-.7.034-.252.008-.501.02-.746.035.03-.291.054-.579.069-.863.015-.283.023-.563.023-.839V5.635h-.873c-.107.107-.271.207-.493.299-.222.092-.536.172-.941.242-.406.069-.953.103-1.642.103v1.219c.245-.015.513-.027.804-.035.29-.007.566-.019.826-.034-.03.307-.054.594-.069.862-.015.269-.023.533-.023.794v4.761c0 .506-.019.95-.057 1.334-.038.383-.15.682-.333.897-.184.215-.505.322-.964.322v.966h5.12zm7.442.069l2.984-7.636c.23-.552.448-1.05.654-1.495.207-.445.433-.797.678-1.058.245-.26.535-.406.872-.437v-.943h-3.88v1.219l1.47-.092-.153.305-.18.362c-.13.26-.257.575-.38.943l-1.56 4.301-.287.816L113 14l-.188.537h-.023c-.123-.307-.241-.606-.356-.897-.115-.291-.234-.575-.356-.851l-1.584-3.68c-.153-.399-.264-.77-.333-1.116-.069-.345-.042-.624.08-.839.123-.215.39-.33.804-.345v-.943h-4.615v1.219l.941-.069c.031.169.065.372.104.61.038.237.115.525.23.862.114.337.286.767.516 1.288l3.398 7.659h1.263zm9.361.299c.643 0 1.263-.134 1.86-.402.597-.269 1.156-.664 1.676-1.185.03.2.054.391.069.575.015.184.038.399.069.644h3.65v-1.219c-.245 0-.505.008-.78.023-.276.015-.544.03-.804.046.03-.322.054-.629.069-.92.015-.291.023-.552.023-.782 0-.567.004-1.104.011-1.61.008-.506.012-1.012.012-1.518V9.798c0-1.487-.325-2.576-.976-3.266-.65-.69-1.634-1.035-2.95-1.035-.872 0-1.66.123-2.365.368-.704.245-1.259.583-1.664 1.012-.406.43-.609.92-.609 1.472 0 .337.096.633.287.886.192.253.471.379.838.379.444.015.758-.111.942-.38.183-.268.275-.51.275-.724 0-.138-.019-.287-.057-.448-.039-.161-.119-.303-.241-.426.214-.368.52-.633.918-.793.398-.162.796-.234 1.194-.219.597 0 1.037.134 1.32.403.283.268.47.613.562 1.035.092.421.138.877.138 1.368v1.357c-.765 0-1.546.08-2.342.241-.795.162-1.53.407-2.204.736-.673.33-1.216.756-1.63 1.277-.413.521-.62 1.135-.62 1.84 0 .813.28 1.491.838 2.035.56.545 1.39.817 2.491.817zm.827-1.633c-.429 0-.8-.123-1.114-.368-.313-.245-.485-.629-.516-1.15 0-.475.126-.882.379-1.219.252-.337.585-.613.998-.828.414-.215.877-.376 1.39-.483.512-.107 1.013-.176 1.503-.207 0 .445-.004.855-.011 1.23-.008.376-.012.633-.012.771v.563c0 .177.008.35.023.518-.398.368-.803.655-1.217.863-.413.207-.887.31-1.423.31z" transform="translate(24.96 6)"/><path fill="#C9754E" d="M1.17 17.365v-7.36h2.125c.313 0 .545.034.694.103.15.07.289.188.42.357l5.2 6.601c.083.107.17.184.258.23.088.046.193.069.315.069h1.022l-5.59-7.038c-.146-.192-.31-.345-.494-.46.712-.077 1.35-.24 1.917-.489.566-.249 1.05-.567 1.452-.954.402-.387.71-.838.924-1.351.214-.514.322-1.082.322-1.703 0-1.403-.463-2.466-1.39-3.19-.926-.725-2.326-1.088-4.2-1.088H0v16.273h1.17zm2.825-8.234H1.17V2.024h2.973c1.446 0 2.548.28 3.306.84.758.56 1.137 1.418 1.137 2.575 0 .568-.104 1.078-.31 1.53-.207.452-.507.84-.902 1.161-.394.322-.876.57-1.446.742-.57.173-1.215.259-1.934.259zm13.172 8.384c.428 0 .855-.043 1.28-.127.424-.084.822-.197 1.193-.34.372-.141.708-.312 1.01-.511.303-.2.546-.414.73-.644l-.299-.368c-.053-.077-.13-.115-.23-.115-.076 0-.198.063-.367.19-.168.126-.396.268-.683.425-.287.157-.64.3-1.062.426-.42.126-.918.19-1.492.19-.643 0-1.224-.112-1.745-.334-.52-.222-.964-.554-1.331-.995-.368-.44-.651-.987-.85-1.638-.199-.652-.298-1.407-.298-2.266v-.218h8.253c.107 0 .186-.031.236-.092.05-.062.074-.177.074-.346 0-.805-.113-1.518-.338-2.139-.226-.62-.54-1.144-.942-1.57-.402-.425-.876-.749-1.423-.971-.547-.222-1.142-.333-1.785-.333-.811 0-1.537.141-2.176.425-.639.284-1.178.677-1.618 1.179-.44.502-.777 1.1-1.01 1.794-.234.694-.35 1.45-.35 2.271 0 .974.124 1.838.373 2.593.248.755.602 1.394 1.061 1.915.46.521 1.01.918 1.653 1.19.643.272 1.355.409 2.136.409zm3.432-7.027h-7.53c.068-.598.208-1.138.419-1.621.21-.484.485-.898.826-1.243.34-.345.744-.609 1.211-.793.467-.184.995-.276 1.584-.276.52 0 .995.09 1.424.27.428.18.796.44 1.102.776.306.338.543.75.711 1.237.169.487.253 1.037.253 1.65zm4.218 6.877V8.717c.413-.66.884-1.175 1.412-1.547.528-.372 1.102-.558 1.722-.558.85 0 1.496.296 1.94.886.444.59.666 1.441.666 2.553v7.314h1.09v-7.314c0-.567.082-1.066.247-1.495.164-.43.386-.788.666-1.075.28-.288.6-.504.964-.65.364-.146.744-.219 1.142-.219.896 0 1.584.294 2.066.88.483.587.724 1.44.724 2.559v7.314h1.102v-7.314c0-.69-.084-1.303-.253-1.84-.168-.537-.411-.989-.729-1.357-.317-.368-.702-.646-1.153-.834-.452-.188-.96-.281-1.527-.281-.398 0-.787.055-1.165.166-.38.111-.73.28-1.05.506-.322.226-.607.512-.856.857s-.442.755-.58 1.23c-.176-.866-.512-1.542-1.01-2.03-.497-.486-1.163-.73-1.997-.73-.36 0-.702.052-1.028.156-.325.103-.631.249-.918.437-.287.188-.557.412-.81.672-.252.261-.49.549-.711.863l-.103-1.656c-.031-.192-.146-.287-.345-.287h-.597v11.442h1.09zm20.725.15c.819 0 1.552-.139 2.198-.415.647-.276 1.192-.67 1.636-1.184.444-.514.783-1.13 1.016-1.851.234-.721.35-1.53.35-2.427s-.116-1.708-.35-2.432c-.233-.725-.572-1.344-1.016-1.857-.444-.514-.989-.91-1.636-1.19-.646-.28-1.379-.42-2.198-.42s-1.551.14-2.198.42c-.647.28-1.194.676-1.642 1.19-.447.513-.788 1.132-1.021 1.857-.234.724-.35 1.535-.35 2.432s.116 1.706.35 2.427c.233.72.574 1.337 1.021 1.851.448.514.995.909 1.642 1.184.647.276 1.38.415 2.198.415zm0-.863c-.681 0-1.276-.117-1.785-.35-.509-.235-.934-.57-1.274-1.007-.34-.437-.597-.964-.77-1.581-.171-.617-.258-1.31-.258-2.076 0-.759.087-1.449.259-2.07.172-.621.428-1.152.769-1.593.34-.44.765-.78 1.274-1.018.509-.237 1.104-.356 1.785-.356.681 0 1.276.119 1.785.356.51.238.934.577 1.274 1.018.34.441.595.972.764 1.593.168.621.252 1.311.252 2.07 0 .767-.084 1.459-.252 2.076-.169.617-.423 1.144-.764 1.581-.34.437-.765.772-1.274 1.006-.509.234-1.104.351-1.785.351zm10.394.897c.482 0 .947-.098 1.395-.293.447-.196.817-.454 1.107-.776l-.298-.484c-.061-.076-.122-.114-.184-.114-.053 0-.126.04-.218.12-.092.08-.21.169-.356.265-.145.096-.317.184-.516.264-.2.08-.436.121-.712.121-.222 0-.428-.035-.62-.104-.191-.068-.358-.176-.5-.321-.14-.146-.252-.332-.332-.558-.08-.226-.12-.497-.12-.811V7.095h3.592V6.28h-3.593v-4.37h-.516c-.084 0-.151.027-.201.08-.05.054-.079.115-.086.185l-.276 4.093-1.951.138v.426c0 .084.027.15.08.196.054.045.123.069.207.069h1.641v7.82c0 .896.217 1.56.649 1.989.432.43 1.035.644 1.808.644zm8.637-.034c.429 0 .856-.043 1.28-.127.425-.084.823-.197 1.194-.34.371-.141.708-.312 1.01-.511.303-.2.546-.414.73-.644l-.3-.368c-.053-.077-.13-.115-.229-.115-.076 0-.199.063-.367.19-.168.126-.396.268-.683.425-.287.157-.641.3-1.062.426-.42.126-.918.19-1.492.19-.643 0-1.225-.112-1.745-.334-.52-.222-.964-.554-1.332-.995-.367-.44-.65-.987-.85-1.638-.198-.652-.298-1.407-.298-2.266v-.218h8.254c.107 0 .186-.031.235-.092.05-.062.075-.177.075-.346 0-.805-.113-1.518-.339-2.139-.225-.62-.54-1.144-.941-1.57-.402-.425-.876-.749-1.423-.971-.548-.222-1.143-.333-1.785-.333-.812 0-1.537.141-2.176.425-.639.284-1.178.677-1.618 1.179-.44.502-.777 1.1-1.01 1.794-.234.694-.35 1.45-.35 2.271 0 .974.124 1.838.372 2.593.25.755.603 1.394 1.062 1.915.46.521 1.01.918 1.653 1.19.643.272 1.355.409 2.135.409zm3.433-7.027h-7.53c.068-.598.208-1.138.418-1.621.21-.484.486-.898.827-1.243.34-.345.744-.609 1.21-.793.468-.184.996-.276 1.585-.276.52 0 .995.09 1.423.27.429.18.796.44 1.102.776.307.338.544.75.712 1.237.169.487.253 1.037.253 1.65z" transform="translate(24.96 6)"/></g><path fill="#DE9777" d="M0 9.684C.184 8.79.924 7.483 1.663 7.81c.74.327 2.685 1.37 5.545 1.635 2.86.264 5.914 0 7.393-.327 1.478-.327 1.749 1.528 1.749 1.874V21c0 2.21-1.79 4-4 4H4c-2.21 0-4-1.79-4-4zM8.038.026c.15-.052.321-.026.457.073.075.058 1.86 1.423 2.573 4.18.276 1.062.066 2.172-.582 3.043-.465.633-1.104 1.058-1.81 1.226-.704.168-1.42-.007-1.42-.007-.186-.047-.367-.13-.537-.25-.407-.281-1.38-1.074-1.535-2.33-.116-.953.255-1.943 1.108-2.933.02-.026.046-.047.07-.068.006-.005.823-.677 1.064-1.537L7.717.375c.045-.161.166-.291.321-.349z"/></g></svg>